<?xml version="1.0" standalone="no"?>
<!DOCTYPE svg PUBLIC "-//W3C//DTD SVG 20010904//EN"
 "http://www.w3.org/TR/2001/REC-SVG-20010904/DTD/svg10.dtd">
<svg version="1.0" xmlns="http://www.w3.org/2000/svg"
 width="500.000000pt" height="500.000000pt" viewBox="0 0 500.000000 500.000000"
 preserveAspectRatio="xMidYMid meet">

<g transform="translate(0.000000,500.000000) scale(0.100000,-0.100000)"
fill="#000000" stroke="none">
<path d="M1183 3070 c-136 -25 -278 -103 -368 -203 -60 -66 -125 -188 -151
-287 -25 -91 -25 -319 -1 -410 61 -223 208 -377 427 -445 84 -26 298 -32 394
-11 224 50 403 213 474 433 32 98 45 236 32 348 -32 290 -178 472 -445 554
-80 25 -276 36 -362 21z m241 -52 c98 -49 186 -184 226 -348 42 -172 35 -485
-15 -635 -46 -136 -122 -242 -203 -281 -63 -30 -141 -30 -206 -1 -189 87 -290
373 -264 747 15 214 69 363 168 462 89 89 191 108 294 56z"/>
<path d="M2654 3070 c-204 -37 -375 -163 -463 -342 -56 -113 -71 -172 -78
-313 -20 -416 211 -687 607 -714 167 -11 255 13 404 107 69 44 85 34 101 -60
4 -29 11 -38 26 -38 20 0 20 3 14 238 -4 130 -11 241 -16 247 -16 17 -26 -8
-43 -107 -8 -54 -26 -119 -38 -145 -29 -61 -106 -135 -177 -171 -49 -24 -68
-27 -151 -27 -81 0 -102 4 -144 25 -95 48 -171 162 -218 325 -20 72 -23 101
-23 290 0 231 12 303 74 440 109 240 378 285 571 96 64 -63 90 -119 110 -238
11 -71 24 -94 40 -77 4 5 11 111 15 237 7 223 6 227 -13 227 -17 0 -23 -10
-32 -54 -6 -30 -17 -60 -25 -66 -15 -13 -19 -11 -116 48 -95 57 -154 74 -269
78 -58 1 -128 -1 -156 -6z"/>
<path d="M3734 3066 c-122 -28 -210 -88 -259 -178 -27 -48 -30 -62 -30 -148 0
-85 3 -101 29 -155 42 -84 107 -144 286 -265 172 -115 239 -173 277 -237 30
-51 40 -139 24 -199 -14 -51 -83 -118 -137 -133 -56 -16 -153 -13 -207 5 -122
41 -210 190 -233 394 -5 50 -10 60 -25 60 -18 0 -19 -10 -19 -128 0 -71 -3
-184 -7 -250 -6 -118 -5 -122 14 -122 14 0 23 10 29 31 15 54 34 57 111 21
100 -47 173 -63 294 -62 222 0 377 71 447 204 24 46 27 61 27 156 0 96 -2 110
-29 159 -42 81 -123 154 -296 271 -233 156 -257 175 -290 233 -24 43 -30 63
-30 115 0 36 6 75 14 91 38 73 141 121 229 107 149 -23 258 -157 292 -358 4
-29 11 -38 25 -38 19 0 20 8 20 199 0 110 3 206 6 215 4 11 0 16 -15 16 -14 0
-22 -8 -27 -27 -10 -47 -13 -53 -30 -60 -9 -3 -58 15 -115 42 -96 46 -102 48
-206 51 -69 2 -130 -1 -169 -10z"/>
</g>
</svg>
